<mxfile host="app.diagrams.net" modified="2023-05-27T15:33:34.482Z" agent="5.0 (Windows NT 10.0; Win64; x64) AppleWebKit/537.36 (KHTML, like Gecko) Chrome/113.0.0.0 Safari/537.36" etag="HkbDumnF1WGSQ-W7JZ0Z" version="21.0.6" type="github">
  <diagram name="第 1 页" id="uFpwxGLy6YJfdJJdwBbi">
    <mxGraphModel dx="2286" dy="903" grid="0" gridSize="10" guides="1" tooltips="1" connect="1" arrows="1" fold="1" page="0" pageScale="1" pageWidth="827" pageHeight="1169" math="0" shadow="0">
      <root>
        <mxCell id="0" />
        <mxCell id="1" parent="0" />
        <mxCell id="fYVHIgQ5rP5VqWUu2Dhq-4" value="" style="whiteSpace=wrap;html=1;aspect=fixed;fillColor=#dae8fc;strokeColor=#6c8ebf;" vertex="1" parent="1">
          <mxGeometry x="288" y="361" width="221" height="221" as="geometry" />
        </mxCell>
        <mxCell id="fYVHIgQ5rP5VqWUu2Dhq-5" value="字符串常量池" style="text;html=1;strokeColor=none;fillColor=none;align=center;verticalAlign=middle;whiteSpace=wrap;rounded=0;fontStyle=1;fontSize=18;" vertex="1" parent="1">
          <mxGeometry x="332" y="331" width="120" height="33" as="geometry" />
        </mxCell>
        <mxCell id="fYVHIgQ5rP5VqWUu2Dhq-6" value="" style="whiteSpace=wrap;html=1;aspect=fixed;fillColor=#d5e8d4;strokeColor=#82b366;" vertex="1" parent="1">
          <mxGeometry x="11" y="361" width="218" height="218" as="geometry" />
        </mxCell>
        <mxCell id="fYVHIgQ5rP5VqWUu2Dhq-7" value="堆" style="text;html=1;strokeColor=none;fillColor=none;align=center;verticalAlign=middle;whiteSpace=wrap;rounded=0;fontStyle=1;fontSize=18;" vertex="1" parent="1">
          <mxGeometry x="56" y="328" width="120" height="33" as="geometry" />
        </mxCell>
        <mxCell id="fYVHIgQ5rP5VqWUu2Dhq-8" value="abc" style="text;html=1;strokeColor=none;fillColor=none;align=center;verticalAlign=middle;whiteSpace=wrap;rounded=0;fontSize=17;" vertex="1" parent="1">
          <mxGeometry x="385.5" y="376" width="23" height="23" as="geometry" />
        </mxCell>
        <mxCell id="fYVHIgQ5rP5VqWUu2Dhq-9" value="def" style="text;html=1;strokeColor=none;fillColor=none;align=center;verticalAlign=middle;whiteSpace=wrap;rounded=0;fontSize=15;" vertex="1" parent="1">
          <mxGeometry x="365" y="411" width="60" height="30" as="geometry" />
        </mxCell>
        <mxCell id="fYVHIgQ5rP5VqWUu2Dhq-10" value="abcdef" style="text;html=1;strokeColor=none;fillColor=none;align=center;verticalAlign=middle;whiteSpace=wrap;rounded=0;fontSize=15;" vertex="1" parent="1">
          <mxGeometry x="95" y="376" width="38" height="20" as="geometry" />
        </mxCell>
        <mxCell id="fYVHIgQ5rP5VqWUu2Dhq-11" value="abc" style="text;html=1;strokeColor=none;fillColor=none;align=center;verticalAlign=middle;whiteSpace=wrap;rounded=0;fontSize=15;" vertex="1" parent="1">
          <mxGeometry x="86" y="402" width="29" height="28" as="geometry" />
        </mxCell>
        <mxCell id="fYVHIgQ5rP5VqWUu2Dhq-12" value="def" style="text;html=1;strokeColor=none;fillColor=none;align=center;verticalAlign=middle;whiteSpace=wrap;rounded=0;fontSize=15;" vertex="1" parent="1">
          <mxGeometry x="84.5" y="439" width="29.5" height="28" as="geometry" />
        </mxCell>
        <mxCell id="fYVHIgQ5rP5VqWUu2Dhq-15" style="edgeStyle=none;curved=1;rounded=0;orthogonalLoop=1;jettySize=auto;html=1;endArrow=open;startSize=14;endSize=14;sourcePerimeterSpacing=8;targetPerimeterSpacing=8;" edge="1" parent="1" source="fYVHIgQ5rP5VqWUu2Dhq-13" target="fYVHIgQ5rP5VqWUu2Dhq-8">
          <mxGeometry relative="1" as="geometry" />
        </mxCell>
        <mxCell id="fYVHIgQ5rP5VqWUu2Dhq-13" value="String s" style="text;html=1;strokeColor=none;fillColor=none;align=center;verticalAlign=middle;whiteSpace=wrap;rounded=0;fontSize=15;" vertex="1" parent="1">
          <mxGeometry x="592" y="369" width="60" height="30" as="geometry" />
        </mxCell>
        <mxCell id="fYVHIgQ5rP5VqWUu2Dhq-17" style="edgeStyle=none;curved=1;rounded=0;orthogonalLoop=1;jettySize=auto;html=1;endArrow=open;startSize=14;endSize=14;sourcePerimeterSpacing=8;targetPerimeterSpacing=8;" edge="1" parent="1" source="fYVHIgQ5rP5VqWUu2Dhq-16" target="fYVHIgQ5rP5VqWUu2Dhq-10">
          <mxGeometry relative="1" as="geometry" />
        </mxCell>
        <mxCell id="fYVHIgQ5rP5VqWUu2Dhq-16" value="String s1" style="text;html=1;strokeColor=none;fillColor=none;align=center;verticalAlign=middle;whiteSpace=wrap;rounded=0;fontSize=15;" vertex="1" parent="1">
          <mxGeometry x="-105" y="376" width="83" height="23" as="geometry" />
        </mxCell>
        <mxCell id="fYVHIgQ5rP5VqWUu2Dhq-19" style="edgeStyle=none;curved=1;rounded=0;orthogonalLoop=1;jettySize=auto;html=1;endArrow=open;startSize=14;endSize=14;sourcePerimeterSpacing=8;targetPerimeterSpacing=8;" edge="1" parent="1" source="fYVHIgQ5rP5VqWUu2Dhq-18" target="fYVHIgQ5rP5VqWUu2Dhq-11">
          <mxGeometry relative="1" as="geometry" />
        </mxCell>
        <mxCell id="fYVHIgQ5rP5VqWUu2Dhq-18" value="String s2" style="text;html=1;strokeColor=none;fillColor=none;align=center;verticalAlign=middle;whiteSpace=wrap;rounded=0;fontSize=15;" vertex="1" parent="1">
          <mxGeometry x="-97.5" y="408.5" width="68" height="21" as="geometry" />
        </mxCell>
        <mxCell id="fYVHIgQ5rP5VqWUu2Dhq-22" style="edgeStyle=none;curved=1;rounded=0;orthogonalLoop=1;jettySize=auto;html=1;endArrow=open;startSize=14;endSize=14;sourcePerimeterSpacing=8;targetPerimeterSpacing=8;" edge="1" parent="1" source="fYVHIgQ5rP5VqWUu2Dhq-20" target="fYVHIgQ5rP5VqWUu2Dhq-12">
          <mxGeometry relative="1" as="geometry" />
        </mxCell>
        <mxCell id="fYVHIgQ5rP5VqWUu2Dhq-20" value="String s3" style="text;html=1;strokeColor=none;fillColor=none;align=center;verticalAlign=middle;whiteSpace=wrap;rounded=0;fontSize=15;" vertex="1" parent="1">
          <mxGeometry x="-99" y="445" width="68" height="21" as="geometry" />
        </mxCell>
      </root>
    </mxGraphModel>
  </diagram>
</mxfile>
